<mxfile host="app.diagrams.net" modified="2024-02-01T07:14:06.875Z" agent="Mozilla/5.0 (Windows NT 10.0; Win64; x64) AppleWebKit/537.36 (KHTML, like Gecko) Chrome/121.0.0.0 Safari/537.36" version="22.1.18" etag="OlW8wkGcqNFxkK7EKW_2" type="github">
  <diagram name="第 1 页" id="ys4iuDJsFoxVz48O0i5L">
    <mxGraphModel>
      <root>
        <mxCell id="0" />
        <mxCell id="1" parent="0" />
      </root>
    </mxGraphModel>
  </diagram>
</mxfile>
